#!OML:ASF E:\Steps\Project 1\Capture day 1\Session 2\Subject.ASF
:FULLY-SPECIFIED
:DEGREES
221
root 7.42325 16.2717 31.5859 -153.989 0.162718 177.236
lowerback -27.7394 -1.67635 -7.09214
upperback -1.01135 -0.456934 -0.60333
thorax 13.6379 -0.872706 2.98829
lowerneck -5.24913 -2.73702 -1.0485
upperneck 12.657 -4.84681 5.72189
head 4.8241 -2.29064 1.64112
rclavicle -9.88954e-015 3.65764e-014
rhumerus -39.9077 -21.0661 -77.2998
rradius 34.04
rwrist -2.45553
rhand -7.19623 -52.3117
rfingers 7.12502
rthumb 18.6821 -81.4346
lclavicle -9.88954e-015 3.65764e-014
lhumerus -31.1084 10.4357 78.8215
lradius 22.0866
lwrist -4.2325
lhand -20.5682 -13.8002
lfingers 7.12502
lthumb 5.79127 16.1007
rfemur -24.2691 4.87296 21.2909
rtibia 8.05145
rfoot -20.1422 -5.32534
rtoes -25.9855
lfemur -25.6615 -9.75077 -19.55
ltibia 11.7534
lfoot -10.0825 0.212636
ltoes -31.4102
222
root 7.42827 16.2661 31.5813 -153.98 0.25968 177.243
lowerback -27.7488 -1.68048 -7.09732
upperback -1.02947 -0.467174 -0.57679
thorax 13.6228 -0.87865 3.01571
lowerneck -5.19872 -3.27957 -1.20621
upperneck 12.8386 -4.61731 5.74152
head 4.86778 -1.79151 1.71995
rclavicle 1.3418e-015 1.55052e-014
rhumerus -39.96 -20.8244 -77.3715
rradius 34.1361
rwrist -2.60972
rhand -7.28722 -52.3331
rfingers 7.12502
rthumb 18.5946 -81.4644
lclavicle 1.3418e-015 1.55052e-014
lhumerus -31.1249 10.5665 78.7809
lradius 21.9833
lwrist -4.30795
lhand -20.6154 -13.7675
lfingers 7.12502
lthumb 5.7457 16.1346
rfemur -24.3678 4.71627 21.3272
rtibia 8.20844
rfoot -20.2535 -4.89726
rtoes -24.9555
lfemur -25.8167 -9.68877 -19.5275
ltibia 12.06
lfoot -10.3402 0.107344
ltoes -29.2316
223
root 7.43144 16.2628 31.5791 -153.937 0.480188 177.253
lowerback -27.7874 -1.66935 -7.09062
upperback -1.04488 -0.461543 -0.531218
thorax 13.6233 -0.877946 3.06279
lowerneck -5.17974 -3.21993 -1.4785
upperneck 12.9564 -4.52244 5.84629
head 4.90533 -1.74734 1.80312
rclavicle -1.14301e-014 9.93923e-016
rhumerus -39.8788 -20.7367 -77.3318
rradius 34.0595
rwrist -2.52509
rhand -7.06248 -51.9193
rfingers 7.12502
rthumb 18.8107 -81.0298
lclavicle -1.14301e-014 9.93923e-016
lhumerus -31.1366 10.8108 78.7756
lradius 21.9033
lwrist -4.39251
lhand -20.6419 -13.6312
lfingers 7.12502
lthumb 5.72006 16.2716
rfemur -24.5626 4.81558 21.2613
rtibia 8.45811
rfoot -20.3668 -4.5508
rtoes -23.095
lfemur -25.9834 -9.83879 -19.4759
ltibia 12.3646
lfoot -10.6228 0.362632
ltoes -29.0096
224
root 7.43561 16.2624 31.5732 -153.989 0.653366 177.14
lowerback -27.8002 -1.69365 -7.1894
upperback -1.00077 -0.453055 -0.546956
thorax 13.6783 -0.880995 3.10225
lowerneck -5.33152 -3.21318 -1.49174
upperneck 13.2771 -4.49467 5.65257
head 5.0247 -1.73395 1.74488
rclavicle 2.78299e-015 -1.11319e-014
rhumerus -39.7712 -20.7356 -77.3614
rradius 33.9952
rwrist -2.43699
rhand -6.96912 -51.8386
rfingers 7.12502
rthumb 18.9005 -80.9404
lclavicle 2.78299e-015 -1.11319e-014
lhumerus -31.1303 11.1375 78.6805
lradius 21.8104
lwrist -4.5995
lhand -20.6104 -13.593
lfingers 7.12502
lthumb 5.75052 16.309
rfemur -24.5842 4.78365 21.1223
rtibia 8.62408
rfoot -20.4096 -4.47796
rtoes -23.3376
lfemur -26.0357 -10.0245 -19.5866
ltibia 12.6925
lfoot -10.8049 0.625864
ltoes -29.8887
225
root 7.44562 16.2623 31.5689 -154.091 0.57895 176.952
lowerback -27.7211 -1.79603 -7.4156
upperback -0.943517 -0.507651 -0.577874
thorax 13.7112 -0.917905 3.17217
lowerneck -5.3275 -3.21796 -1.50427
upperneck 13.362 -4.49329 5.60297
head 5.04926 -1.73376 1.73176
rclavicle 1.11319e-014 1.19271e-015
rhumerus -39.746 -20.7675 -77.4503
rradius 34.0128
rwrist -2.40657
rhand -6.95496 -51.8963
rfingers 7.12502
rthumb 18.9141 -80.9967
lclavicle 1.11319e-014 1.19271e-015
lhumerus -31.096 11.4144 78.5337
lradius 21.6742
lwrist -4.87808
lhand -20.607 -13.5754
lfingers 7.12502
lthumb 5.75377 16.3264
rfemur -24.3862 4.89887 20.9572
rtibia 8.54342
rfoot -20.3981 -4.80036
rtoes -24.428
lfemur -26.114 -10.0801 -19.7657
ltibia 13.1058
lfoot -11.0662 0.52431
ltoes -29.7039
226
root 7.45202 16.2632 31.5634 -154.199 0.497036 176.898
lowerback -27.65 -1.85645 -7.4886
upperback -0.889622 -0.560529 -0.548219
thorax 13.7463 -0.944999 3.22606
lowerneck -5.26134 -3.19426 -1.77032
upperneck 13.3053 -4.46367 5.86317
head 5.03077 -1.71774 1.8591
rclavicle 3.8266e-015 2.46493e-014
rhumerus -39.7628 -20.6168 -77.5002
rradius 34.1152
rwrist -2.53024
rhand -6.90504 -52.0043
rfingers 7.12502
rthumb 18.9621 -81.1
lclavicle 3.8266e-015 2.46493e-014
lhumerus -31.0815 11.6348 78.4771
lradius 21.5799
lwrist -5.12311
lhand -20.6015 -13.5775
lfingers 7.12502
lthumb 5.75912 16.3243
rfemur -24.1651 5.03825 20.9184
rtibia 8.46664
rfoot -20.4108 -4.94892
rtoes -24.1746
lfemur -26.191 -10.3716 -19.7444
ltibia 13.5536
lfoot -11.4683 0.807839
ltoes -30.5434
